<svg id="Laag_1" data-name="Laag 1" xmlns="http://www.w3.org/2000/svg" viewBox="0 0 899.42 200.65"><defs><style>.cls-1{isolation:isolate;}.cls-2{fill:#2d2a2b;}</style></defs><g id="Group_149" data-name="Group 149"><g id="Group_148" data-name="Group 148"><g id="startly" class="cls-1"><g class="cls-1"><path class="cls-2" d="M314.81,139.68q8.55,0,12.11-1.67c2.36-1.11,3.55-3.27,3.55-6.47,0-2.51-1.54-4.7-4.6-6.58a87.18,87.18,0,0,0-14-6.37A139.73,139.73,0,0,1,298.63,113a38.78,38.78,0,0,1-10.13-7A28.13,28.13,0,0,1,282,96.25a35.73,35.73,0,0,1-2.3-13.57q0-15.45,11.48-24.43t31.53-9A101.42,101.42,0,0,1,342,51.05a89.8,89.8,0,0,1,14.62,3.86l-5.43,24.22a116.91,116.91,0,0,0-11.8-3.34A64.38,64.38,0,0,0,325,74.33q-14.62,0-14.62,8.14a8.33,8.33,0,0,0,.63,3.34,7.08,7.08,0,0,0,2.5,2.82,35.21,35.21,0,0,0,5.12,2.94q3.24,1.58,8.25,3.47a128.53,128.53,0,0,1,16.91,7.47,40.33,40.33,0,0,1,10.54,8A24.5,24.5,0,0,1,359.8,120,41.84,41.84,0,0,1,361.37,132q0,16.25-12.22,24.58T314.6,165q-14.62,0-24.33-2.51a97.17,97.17,0,0,1-13.46-4.18L282,133a101.41,101.41,0,0,0,16.28,4.91A79.45,79.45,0,0,0,314.81,139.68Z"/><path class="cls-2" d="M378.28,24.85l31.11-5V52.2h37.37V78.09H409.39v38.62q0,9.83,3.44,15.66t13.89,5.85a59,59,0,0,0,10.33-.94,53,53,0,0,0,9.71-2.61l4.38,24.22a87.89,87.89,0,0,1-12.52,4,73.22,73.22,0,0,1-16.91,1.67q-12.75,0-21.09-3.45a32.94,32.94,0,0,1-13.36-9.6,35.62,35.62,0,0,1-7-14.93,88.32,88.32,0,0,1-2-19.42Z"/><path class="cls-2" d="M502.09,49.27q13.79,0,23,3.14a35.79,35.79,0,0,1,14.72,9,33.25,33.25,0,0,1,7.83,14.2,70.16,70.16,0,0,1,2.29,18.59v64.72q-6.67,1.47-18.58,3.44a177.58,177.58,0,0,1-28.81,2,91.61,91.61,0,0,1-19.32-1.88,41.84,41.84,0,0,1-14.93-6.16,28.16,28.16,0,0,1-9.6-11.17q-3.35-6.88-3.34-16.91,0-9.6,3.86-16.29a29.82,29.82,0,0,1,10.34-10.65,46.88,46.88,0,0,1,14.82-5.74,83.36,83.36,0,0,1,17.33-1.77,97.8,97.8,0,0,1,10.75.52,47.89,47.89,0,0,1,7.63,1.36V92.7q0-7.92-4.81-12.73t-16.7-4.8a107.12,107.12,0,0,0-15.66,1.14,67.61,67.61,0,0,0-13.36,3.24l-4-25q2.71-.84,6.79-1.78c2.71-.63,5.67-1.18,8.87-1.67s6.58-.9,10.13-1.25S498.47,49.27,502.09,49.27Zm2.5,91c3.06,0,6-.07,8.77-.21a61,61,0,0,0,6.69-.63V115.88c-1.26-.28-3.14-.55-5.64-.84a64.83,64.83,0,0,0-6.89-.41,61.25,61.25,0,0,0-8.25.52,21.71,21.71,0,0,0-6.79,2,11.65,11.65,0,0,0-4.59,4,11.08,11.08,0,0,0-1.67,6.26q0,7.32,4.91,10.13T504.59,140.31Z"/><path class="cls-2" d="M639.06,79.76q-4.18-1-9.82-2.19a60.29,60.29,0,0,0-12.11-1.15,55.62,55.62,0,0,0-7,.52A40.89,40.89,0,0,0,604,78.09V162H572.87V58a188.24,188.24,0,0,1,19.73-5.53A113.64,113.64,0,0,1,618,49.9c1.67,0,3.68.11,6,.31s4.73.49,7.1.84,4.73.77,7.1,1.25a33.49,33.49,0,0,1,6.06,1.78Z"/><path class="cls-2" d="M654.71,24.85l31.11-5V52.2H723.2V78.09H685.82v38.62q0,9.83,3.45,15.66t13.88,5.85a59.15,59.15,0,0,0,10.34-.94,53.19,53.19,0,0,0,9.71-2.61l4.38,24.22a88,88,0,0,1-12.53,4,73.16,73.16,0,0,1-16.91,1.67q-12.74,0-21.09-3.45a33,33,0,0,1-13.36-9.6,35.73,35.73,0,0,1-7-14.93,87.69,87.69,0,0,1-2-19.42Z"/><path class="cls-2" d="M787.09,164.11q-13.58-.21-22-2.92a32.65,32.65,0,0,1-13.37-7.62,25.27,25.27,0,0,1-6.68-11.9,64.45,64.45,0,0,1-1.77-15.77V5l31.11-5V119.64a41.6,41.6,0,0,0,.62,7.51,12.92,12.92,0,0,0,2.41,5.64,12.57,12.57,0,0,0,5.11,3.76,27.94,27.94,0,0,0,9,1.88Z"/><path class="cls-2" d="M899.42,52.2Q890,83.94,879.74,111.7t-22.4,53.87a121.84,121.84,0,0,1-8.78,16,49.15,49.15,0,0,1-9.62,10.86,34.1,34.1,0,0,1-11.81,6.27,53.65,53.65,0,0,1-15.37,2,62.46,62.46,0,0,1-13.49-1.36,59.87,59.87,0,0,1-10.14-3l5.43-24.84a52.66,52.66,0,0,0,8.56,2.29,48.12,48.12,0,0,0,7.94.63q8.36,0,12.85-4.49a36.09,36.09,0,0,0,7.62-12.42q-10.65-20.88-21.31-46.87A585.24,585.24,0,0,1,789.17,52.2h33q2.1,8.14,4.93,17.64t6,19.21q3.13,9.7,6.39,18.9t6.19,16.7q2.73-7.52,5.66-16.7t5.77-18.9q2.82-9.7,5.45-19.21t4.72-17.64Z"/></g></g><circle id="Ellipse_10" data-name="Ellipse 10" class="cls-2" cx="95.67" cy="40.93" r="33.31"/><g id="Group_147" data-name="Group 147"><g id="Group_146" data-name="Group 146"><path id="Path_29" data-name="Path 29" class="cls-2" d="M95.66,175.47a22.31,22.31,0,0,1-15.83-6.55L6.56,95.65A22.4,22.4,0,0,1,38.24,64l57.42,57.42L202.22,14.82A22.4,22.4,0,0,1,233.9,46.5L111.5,168.9A22.31,22.31,0,0,1,95.66,175.47Z"/></g></g><path id="Path_30" data-name="Path 30" class="cls-2" d="M79.82,168.92a22.42,22.42,0,0,0,31.68,0h0L233.9,46.51a22.4,22.4,0,1,0-31.68-31.67L95.66,121.42l0,0L64,153.06Z"/></g></g></svg>